<svg xmlns="http://www.w3.org/2000/svg" viewBox="0 0 1024 1024" width="1024" height="1024" shape-rendering="geometricPrecision">
<rect width="100%" height="100%" fill="#000000"/>
<path d="M 380 702 L 379 695 L 366 691 L 366 695 L 356 693 L 354 698 L 345 695 L 342 699 L 335 696 L 333 699 L 323 698 L 317 701 L 288 701 L 274 695 L 279 694 L 275 692 L 280 690 L 253 677 L 254 674 L 319 668 L 311 667 L 329 663 L 320 661 L 318 655 L 213 669 L 219 677 L 246 693 L 309 715 L 321 717 L 310 708 L 313 705 L 343 703 L 364 698 L 367 694 Z M 909 535 L 904 536 L 905 543 L 908 546 L 908 551 L 906 551 L 906 553 L 909 554 L 907 555 L 909 559 L 909 570 L 905 575 L 907 576 L 905 588 L 907 587 L 907 589 L 923 575 L 930 561 L 929 552 L 928 553 L 926 550 L 927 548 L 917 539 Z M 259 481 L 263 503 L 270 526 L 288 523 L 288 517 L 305 523 L 330 523 L 345 525 L 346 521 L 331 521 L 330 523 L 327 519 L 324 504 L 350 503 L 351 499 L 319 500 L 322 520 L 320 523 L 290 513 L 287 510 L 276 473 L 276 476 L 269 481 L 263 481 L 262 483 Z M 333 481 L 412 489 L 398 495 L 419 495 L 419 511 L 443 523 L 473 522 L 464 497 L 514 515 L 559 496 L 550 522 L 577 524 L 622 504 L 654 507 L 650 524 L 659 525 L 664 503 L 699 503 L 695 523 L 663 524 L 737 516 L 754 526 L 767 468 L 749 471 L 735 513 L 704 523 L 702 499 L 613 495 L 691 481 L 680 468 L 670 481 L 616 483 L 648 423 L 646 414 L 623 417 L 637 394 L 638 402 L 634 342 L 618 420 L 561 470 L 564 449 L 511 490 L 463 455 L 510 471 L 511 418 L 471 436 L 452 421 L 464 470 L 406 420 L 390 342 L 385 395 L 403 418 L 373 422 L 398 449 L 409 483 L 352 481 L 346 471 Z M 609 477 L 606 491 L 601 503 L 582 513 L 561 522 L 559 521 L 569 493 L 589 486 L 607 476 Z M 414 477 L 417 476 L 428 483 L 454 493 L 465 521 L 462 522 L 425 504 L 420 497 Z M 625 315 L 589 337 L 593 334 L 595 337 L 600 335 L 601 336 L 599 337 L 601 336 L 606 338 L 610 345 L 613 346 L 611 348 L 609 347 L 611 349 L 612 347 L 616 348 L 614 349 L 615 352 L 613 355 L 616 358 L 615 366 L 611 371 L 612 374 L 608 385 L 614 370 L 621 343 Z M 398 315 L 402 339 L 410 370 L 416 386 L 421 391 L 415 384 L 412 375 L 414 373 L 413 371 L 412 373 L 411 372 L 414 366 L 412 364 L 413 356 L 415 355 L 413 354 L 412 349 L 425 334 L 429 334 Z M 599 267 L 599 272 L 595 277 L 594 273 L 594 288 L 593 289 L 592 287 L 587 312 L 587 320 L 589 321 L 581 322 L 566 337 L 581 322 L 590 323 L 596 295 Z M 453 246 L 436 256 L 441 318 L 438 316 L 431 288 L 428 263 L 425 265 L 427 291 L 433 322 L 443 322 L 479 357 L 467 345 L 471 343 L 472 339 L 476 343 L 477 337 L 476 340 L 473 338 L 475 337 L 473 333 L 475 331 L 470 330 L 472 324 L 467 322 L 466 316 L 463 314 L 463 309 L 466 309 L 458 304 L 457 295 L 454 294 L 455 291 L 453 291 L 454 289 L 450 282 L 452 279 L 448 278 L 451 276 L 449 274 L 451 271 L 448 268 L 448 262 L 452 258 L 449 260 L 447 258 L 450 253 L 452 255 L 450 253 L 448 255 L 446 250 Z M 436 238 L 438 243 L 476 222 L 481 248 L 499 283 L 512 293 L 525 283 L 523 280 L 511 289 L 499 279 L 480 240 L 480 219 L 485 219 L 486 237 L 494 255 L 512 272 L 532 252 L 538 238 L 540 218 L 546 220 L 546 231 L 537 262 L 550 220 L 584 235 L 559 221 L 537 214 L 536 238 L 512 266 L 497 252 L 488 236 L 487 214 L 465 221 Z M 0 0 L 0 1023 L 1023 1023 L 1023 0 Z M 964 565 L 889 641 L 900 686 L 829 669 L 805 685 L 830 698 L 674 749 L 775 695 L 694 689 L 726 697 L 512 844 L 423 785 L 322 793 L 284 734 L 165 682 L 76 696 L 134 604 L 100 435 L 151 460 L 160 501 L 158 464 L 229 496 L 120 427 L 156 385 L 139 345 L 168 339 L 173 378 L 335 325 L 327 302 L 193 347 L 208 314 L 175 284 L 309 232 L 353 313 L 316 198 L 364 312 L 378 235 L 487 204 L 512 136 L 537 204 L 567 213 L 624 163 L 680 198 L 685 237 L 715 204 L 678 312 L 714 231 L 847 282 L 816 314 L 828 348 L 700 303 L 687 325 L 856 380 L 846 349 L 882 341 L 867 384 L 904 427 L 825 470 L 867 464 L 862 509 L 873 460 L 923 433 L 899 504 Z" fill="#010101" fill-rule="evenodd"/>
<path d="M 279 735 L 283 737 L 280 745 L 284 752 L 286 748 L 289 753 L 296 749 L 296 757 L 289 760 L 290 763 L 302 755 L 300 763 L 316 773 L 312 778 L 322 792 L 328 789 L 329 783 L 332 784 L 327 779 L 331 778 L 339 783 L 334 786 L 339 784 L 339 788 L 352 790 L 350 792 L 353 795 L 362 796 L 357 793 L 363 789 L 364 794 L 370 795 L 368 798 L 380 798 L 386 793 L 388 800 L 387 797 L 393 793 L 391 799 L 400 803 L 396 800 L 401 797 L 404 804 L 406 794 L 410 799 L 411 794 L 415 797 L 415 801 L 410 801 L 415 802 L 416 796 L 420 798 L 420 794 L 427 789 L 430 792 L 429 788 L 455 806 L 403 769 L 406 776 L 399 776 L 361 746 Z M 391 733 L 395 747 L 394 742 L 397 742 L 396 741 L 398 739 L 404 745 L 402 747 L 404 751 L 408 745 L 410 746 L 409 747 L 411 748 L 408 752 L 410 755 L 413 753 L 410 750 L 412 747 L 458 776 Z M 633 730 L 606 748 L 615 742 L 623 748 L 624 756 L 621 765 L 631 732 Z M 579 738 L 668 686 L 776 695 L 766 700 L 740 704 L 712 724 L 747 705 L 767 700 L 773 702 L 798 690 L 772 685 L 615 684 L 619 689 L 653 693 L 647 697 L 622 697 L 612 702 L 614 706 L 608 717 Z M 275 695 L 288 700 L 317 700 L 335 695 L 344 698 L 345 694 L 354 697 L 356 692 L 367 695 L 333 706 L 337 708 L 377 701 L 365 693 L 376 692 L 379 702 L 510 776 L 533 764 L 511 776 L 509 763 L 498 761 L 469 739 L 455 735 L 448 721 L 463 726 L 419 705 L 412 696 L 448 705 L 428 695 L 453 687 L 446 683 L 411 680 L 316 694 L 281 690 Z M 172 689 L 166 685 L 163 679 L 158 679 L 160 680 L 157 683 L 140 691 L 120 694 L 100 692 L 91 693 L 92 695 L 94 694 L 101 699 L 109 698 L 111 700 L 114 698 L 117 700 L 122 700 L 124 698 L 130 698 L 134 700 L 137 697 L 141 698 L 141 696 L 149 697 L 150 694 L 153 694 L 154 692 L 168 685 Z M 221 679 L 213 672 L 212 669 L 178 675 L 178 677 L 186 685 L 184 683 L 186 681 L 214 680 L 214 677 Z M 118 655 L 117 654 L 112 658 L 107 659 L 98 668 L 96 668 L 90 677 L 88 685 L 79 692 L 87 688 L 97 678 L 98 679 L 102 675 L 100 675 L 101 672 L 109 664 L 111 665 L 110 664 Z M 802 598 L 806 615 L 805 617 L 808 620 L 818 620 L 823 622 L 832 621 L 828 596 L 804 596 Z M 283 589 L 279 616 L 303 615 L 305 609 L 303 614 L 302 605 L 292 601 L 288 603 L 282 599 Z M 891 670 L 886 627 L 856 575 L 868 656 L 786 640 L 777 581 L 765 601 L 763 588 L 766 641 L 738 640 L 733 604 L 708 605 L 705 582 L 703 637 L 679 636 L 663 612 L 661 636 L 595 633 L 577 591 L 578 618 L 544 627 L 543 598 L 535 633 L 512 633 L 511 616 L 495 633 L 427 634 L 412 604 L 401 634 L 365 636 L 351 624 L 354 599 L 338 597 L 325 634 L 273 643 L 245 631 L 254 582 L 227 640 L 144 655 L 158 590 L 123 660 L 348 650 L 317 654 L 323 668 L 574 643 L 724 657 L 804 685 L 831 670 L 792 660 Z M 217 568 L 194 570 L 182 624 L 188 624 L 190 622 L 201 623 L 208 618 L 215 583 L 212 593 L 211 589 L 206 591 L 201 590 L 198 593 L 197 587 L 195 586 L 197 582 L 194 583 L 192 581 L 192 578 L 194 578 L 193 572 L 195 569 L 216 568 L 218 570 L 216 581 L 218 573 Z M 898 530 L 895 533 L 893 547 L 887 555 L 888 556 L 884 557 L 878 583 L 880 600 L 879 607 L 882 603 L 883 604 L 887 600 L 892 599 L 894 596 L 897 596 L 897 594 L 900 594 L 900 592 L 905 589 L 906 590 L 907 588 L 904 588 L 906 576 L 904 575 L 908 570 L 908 559 L 906 555 L 908 554 L 905 553 L 905 551 L 907 551 L 907 546 L 904 543 L 903 536 L 908 534 L 907 535 L 906 533 L 902 533 Z M 839 531 L 837 532 L 833 526 L 826 524 L 803 524 L 801 516 L 805 508 L 800 510 L 797 508 L 794 523 L 767 526 L 759 530 L 736 522 L 735 525 L 720 525 L 720 523 L 637 525 L 649 540 L 656 537 L 670 538 L 671 545 L 673 541 L 699 541 L 700 548 L 701 542 L 704 546 L 719 540 L 737 540 L 748 544 L 756 552 L 753 548 L 757 546 L 772 547 L 772 544 L 774 545 L 778 541 L 796 541 L 787 540 L 795 539 L 801 533 L 814 535 L 809 538 L 825 539 L 826 533 Z M 126 503 L 118 522 L 120 525 L 117 525 L 118 529 L 116 536 L 119 541 L 116 542 L 117 543 L 115 546 L 113 544 L 114 542 L 113 544 L 115 547 L 113 549 L 114 550 L 115 548 L 117 550 L 117 556 L 112 562 L 114 564 L 114 568 L 116 567 L 120 569 L 117 572 L 120 574 L 118 578 L 122 578 L 120 582 L 124 588 L 122 590 L 122 596 L 124 594 L 126 596 L 124 602 L 130 608 L 133 604 L 134 606 L 133 603 L 135 602 L 141 575 L 137 572 L 139 567 L 137 565 L 136 551 L 133 547 L 130 519 L 127 508 L 133 508 L 143 513 Z M 898 500 L 892 506 L 896 504 L 898 506 L 897 518 L 902 522 L 901 523 L 908 525 L 911 524 L 912 526 L 908 513 L 898 504 Z M 421 496 L 420 498 L 419 496 L 397 495 L 354 497 L 350 504 L 327 504 L 350 504 L 351 506 L 352 504 L 353 508 L 364 509 L 367 511 L 366 510 L 369 508 L 381 507 L 387 505 L 388 503 L 391 504 L 394 501 L 397 503 L 403 497 L 418 496 L 418 504 Z M 191 497 L 194 498 L 191 502 L 200 511 L 211 511 L 224 516 L 223 529 L 229 531 L 233 541 L 237 542 L 230 543 L 239 544 L 250 553 L 247 578 L 250 558 L 258 562 L 257 570 L 262 554 L 271 545 L 285 541 L 324 541 L 287 540 L 311 539 L 319 533 L 332 530 L 333 528 L 324 527 L 323 524 L 346 527 L 347 520 L 329 520 L 328 517 L 330 522 L 346 520 L 347 523 L 345 526 L 304 523 L 290 525 L 289 522 L 269 526 L 257 534 L 243 527 L 224 524 L 230 499 L 228 495 L 224 495 L 224 491 L 223 497 Z M 836 474 L 828 474 L 823 467 L 824 468 L 821 468 L 821 470 L 818 469 L 817 471 L 815 470 L 815 472 L 812 471 L 811 473 L 809 472 L 809 474 L 806 473 L 805 475 L 800 475 L 807 475 L 811 484 L 811 482 L 814 483 L 815 481 L 817 482 L 817 480 L 820 481 L 820 479 L 823 480 L 823 478 L 832 475 L 834 476 Z M 257 469 L 257 476 L 259 478 L 258 481 L 261 480 L 262 482 L 263 480 L 269 480 L 275 476 L 276 472 L 274 467 L 273 471 L 263 466 L 260 466 Z M 679 468 L 680 467 L 682 469 L 682 476 L 687 476 L 692 481 L 717 473 L 702 473 L 688 476 L 687 475 L 695 466 L 691 471 L 686 471 L 684 468 L 686 463 L 684 460 L 685 458 Z M 346 470 L 344 469 L 345 468 L 343 467 L 344 466 L 342 465 L 343 464 L 339 457 L 340 470 L 336 473 L 333 471 L 337 475 L 335 477 L 326 474 L 321 474 L 318 477 L 316 476 L 327 480 L 330 479 L 332 481 L 339 476 L 344 476 Z M 391 414 L 387 414 L 386 412 L 368 404 L 365 401 L 363 402 L 358 399 L 354 399 L 305 416 L 309 414 L 311 416 L 313 414 L 322 413 L 326 410 L 330 411 L 335 408 L 350 411 L 363 420 L 361 421 L 375 421 L 377 425 L 375 423 L 376 416 L 379 414 Z M 686 404 L 674 401 L 670 398 L 667 400 L 666 399 L 666 401 L 661 400 L 660 403 L 657 403 L 634 415 L 638 416 L 646 413 L 649 417 L 648 422 L 664 421 L 659 420 L 680 405 Z M 196 389 L 179 401 L 177 412 L 182 419 L 183 418 L 186 422 L 187 421 L 189 424 L 197 428 L 190 423 L 185 411 L 187 401 L 191 393 Z M 817 384 L 831 392 L 839 407 L 832 421 L 832 425 L 825 429 L 839 421 L 845 415 L 847 406 L 845 405 L 846 403 L 844 403 L 845 401 L 844 402 L 842 400 L 843 399 L 837 394 Z M 272 365 L 271 363 L 265 366 L 263 365 L 261 367 L 259 366 L 257 368 L 255 367 L 254 369 L 252 368 L 251 370 L 245 370 L 243 372 L 233 374 L 238 373 L 246 377 L 251 377 L 260 374 Z M 737 360 L 748 362 L 763 373 L 769 380 L 768 381 L 770 377 L 786 377 L 788 375 L 794 375 L 805 379 L 783 371 L 777 371 L 776 369 L 769 369 L 769 367 L 762 367 L 762 365 L 759 366 L 758 364 L 755 365 L 754 363 L 752 364 Z M 158 336 L 153 336 L 151 339 L 146 340 L 143 344 L 142 343 L 137 350 L 137 355 L 135 357 L 134 356 L 134 360 L 136 361 L 135 363 L 134 362 L 136 365 L 135 370 L 138 371 L 138 376 L 140 376 L 144 382 L 151 385 L 157 384 L 156 379 L 155 381 L 151 379 L 143 367 L 143 359 L 150 349 L 162 348 L 171 356 L 171 369 L 165 375 L 161 376 L 162 381 L 166 381 L 169 378 L 171 379 L 170 377 L 176 373 L 179 363 L 178 354 L 176 353 L 176 349 L 175 350 L 173 348 L 174 346 L 168 340 Z M 866 335 L 862 339 L 858 337 L 857 339 L 859 340 L 856 342 L 853 341 L 850 345 L 851 347 L 847 349 L 847 353 L 844 356 L 846 356 L 846 365 L 844 366 L 846 369 L 844 372 L 847 374 L 844 376 L 847 374 L 847 377 L 850 376 L 855 378 L 855 380 L 857 379 L 860 382 L 862 381 L 863 376 L 860 376 L 853 368 L 852 359 L 854 354 L 859 349 L 872 348 L 879 354 L 881 358 L 881 366 L 875 376 L 867 379 L 867 382 L 870 384 L 882 380 L 888 370 L 888 365 L 890 362 L 887 357 L 888 354 L 886 353 L 887 351 L 885 350 L 885 347 L 881 345 L 882 342 L 878 344 L 876 338 L 872 339 L 871 336 L 868 337 Z M 596 334 L 591 335 L 591 337 L 588 337 L 581 343 L 580 342 L 564 352 L 574 349 L 576 345 L 589 343 L 595 344 L 597 342 L 602 346 L 607 361 L 606 373 L 599 391 L 595 393 L 592 399 L 586 402 L 585 401 L 586 402 L 582 406 L 576 409 L 573 416 L 574 412 L 578 408 L 593 399 L 608 387 L 608 382 L 610 382 L 610 371 L 614 366 L 615 367 L 615 358 L 612 355 L 614 352 L 613 349 L 615 348 L 612 348 L 606 339 L 600 336 L 595 338 L 593 336 Z M 637 323 L 634 340 L 635 351 L 633 354 L 635 355 L 633 356 L 636 364 L 636 372 L 639 373 L 641 381 L 642 341 L 641 355 L 639 338 L 636 332 Z M 347 325 L 342 324 L 340 326 L 334 320 L 336 322 L 334 329 L 332 331 L 330 330 L 330 332 L 322 332 L 317 334 L 312 342 L 317 343 L 320 341 L 323 342 L 327 340 L 345 339 Z M 672 308 L 673 311 L 671 311 L 672 312 L 670 313 L 671 314 L 669 317 L 677 324 L 681 331 L 680 339 L 691 339 L 693 341 L 699 340 L 700 342 L 704 341 L 706 343 L 704 341 L 695 340 L 692 338 L 690 329 L 686 325 L 690 322 L 689 320 L 684 325 L 679 325 L 677 323 L 675 311 L 673 309 L 674 308 Z M 465 240 L 447 250 L 452 259 L 446 268 L 476 331 L 468 345 L 500 370 L 505 389 L 477 415 L 462 415 L 440 401 L 423 382 L 420 354 L 426 343 L 451 347 L 428 332 L 413 349 L 411 369 L 416 387 L 449 410 L 453 427 L 471 435 L 501 429 L 511 417 L 512 429 L 512 406 L 521 407 L 527 379 L 562 353 L 529 371 L 581 321 L 588 321 L 586 315 L 523 375 L 524 364 L 529 366 L 533 357 L 519 354 L 513 361 L 510 340 L 492 335 L 489 322 L 477 315 L 479 306 L 461 288 Z M 411 223 L 400 224 L 403 225 L 393 230 L 388 230 L 385 237 L 379 235 L 377 246 L 373 250 L 373 259 L 370 261 L 372 263 L 370 268 L 373 269 L 370 272 L 374 273 L 375 279 L 373 280 L 370 276 L 370 284 L 373 282 L 374 288 L 378 289 L 376 290 L 380 297 L 376 301 L 381 298 L 383 299 L 383 368 L 388 359 L 391 358 L 391 345 L 390 347 L 386 315 L 385 326 L 382 328 L 383 309 L 385 309 L 385 313 L 380 276 L 387 249 L 404 235 L 416 232 L 422 233 L 426 229 L 423 230 L 418 225 Z M 550 221 L 552 224 L 556 224 L 560 228 L 561 227 L 562 229 L 563 228 L 564 230 L 569 231 L 584 242 L 583 241 L 587 238 L 590 239 L 580 234 L 580 232 L 578 233 L 578 231 L 577 232 L 574 230 L 575 229 L 573 230 L 558 222 L 558 224 L 555 224 Z M 586 172 L 589 178 L 581 180 L 582 186 L 566 196 L 571 199 L 561 204 L 571 204 L 566 205 L 565 213 L 597 230 L 607 217 L 614 215 L 615 219 L 620 213 L 619 218 L 625 216 L 644 239 L 647 250 L 644 269 L 647 276 L 641 295 L 664 311 L 660 299 L 664 300 L 690 230 L 684 237 L 685 217 L 680 217 L 684 212 L 678 199 L 685 196 L 670 198 L 672 194 L 668 191 L 672 190 L 658 185 L 656 178 L 649 180 L 646 176 L 650 172 L 646 171 L 644 178 L 642 172 L 636 171 L 643 166 L 632 169 L 624 164 L 616 168 L 625 165 L 630 170 L 613 171 L 612 165 L 611 173 L 600 175 L 602 166 L 610 168 L 610 165 L 597 168 L 589 178 Z" fill="#010206" fill-rule="evenodd"/>
<path d="M 620 740 L 619 739 L 619 741 L 616 741 L 617 742 L 614 744 L 613 743 L 614 744 L 610 747 L 608 746 L 608 748 L 605 748 L 591 759 L 588 759 L 588 761 L 585 761 L 581 765 L 580 764 L 580 766 L 577 766 L 573 770 L 572 769 L 567 774 L 566 773 L 532 795 L 546 787 L 547 789 L 545 793 L 547 796 L 556 798 L 557 801 L 562 802 L 564 800 L 565 802 L 566 799 L 569 802 L 571 801 L 571 803 L 576 799 L 576 797 L 579 797 L 577 797 L 578 795 L 581 794 L 581 796 L 615 772 L 619 772 L 618 770 L 621 766 L 620 763 L 622 763 L 621 760 L 623 760 L 622 757 L 624 757 L 622 748 L 616 745 L 616 743 Z M 396 739 L 395 749 L 400 754 L 398 757 L 402 761 L 401 766 L 403 766 L 402 769 L 511 843 L 513 842 L 510 842 L 509 806 L 491 797 L 488 793 L 484 793 L 483 790 L 482 792 L 481 789 L 479 790 L 473 784 L 469 784 L 465 779 L 463 780 L 457 774 L 455 775 L 449 769 L 447 770 L 441 764 L 439 765 L 438 762 L 436 763 L 435 760 L 433 761 L 430 757 L 428 758 L 427 755 L 425 756 L 412 748 L 411 750 L 414 753 L 410 756 L 407 753 L 410 748 L 409 746 L 404 752 L 401 747 L 403 745 Z M 303 728 L 345 735 L 332 725 L 308 720 L 316 726 L 315 728 Z M 773 701 L 767 701 L 759 705 L 752 705 L 742 708 L 725 716 L 690 739 L 742 714 L 743 715 L 752 709 L 754 710 L 758 708 L 758 710 L 762 706 L 763 707 Z M 384 706 L 376 701 L 349 704 L 349 706 L 344 706 L 337 709 L 332 706 L 314 709 L 320 715 L 323 715 L 323 717 L 320 718 L 324 718 L 322 716 L 324 714 L 332 714 L 336 709 L 349 718 L 349 716 L 353 713 L 369 715 L 383 709 Z M 721 699 L 712 697 L 700 697 L 697 699 L 681 697 L 682 698 L 678 701 L 677 700 L 677 702 L 674 702 L 675 703 L 673 705 L 670 705 L 668 708 L 667 707 L 665 710 L 660 713 L 659 712 L 650 720 L 649 719 L 647 722 L 646 721 L 644 724 L 643 723 L 641 726 L 640 725 L 634 729 L 631 738 L 632 734 L 637 731 L 652 729 L 653 730 L 650 733 L 697 699 L 718 702 L 715 705 Z M 159 680 L 156 679 L 154 681 L 151 680 L 99 691 L 117 693 L 130 692 L 149 687 Z M 448 722 L 455 734 L 509 762 L 512 776 L 607 717 L 612 701 L 653 694 L 619 690 L 615 683 L 774 685 L 604 676 L 515 681 L 575 691 L 567 694 L 570 702 L 548 712 L 609 697 L 602 706 L 554 728 L 544 743 L 515 760 L 512 768 L 510 751 Z M 414 679 L 431 680 L 435 682 L 442 682 L 443 684 L 446 682 L 453 685 L 453 688 L 429 695 L 442 699 L 444 701 L 441 702 L 445 703 L 445 705 L 452 705 L 453 706 L 451 707 L 455 706 L 455 708 L 458 707 L 458 709 L 461 708 L 465 711 L 468 710 L 469 712 L 475 712 L 476 714 L 500 720 L 495 718 L 498 716 L 486 710 L 487 709 L 485 708 L 485 705 L 483 705 L 483 700 L 481 698 L 483 697 L 483 694 L 482 695 L 481 693 L 487 690 L 506 687 L 510 688 L 511 685 L 510 679 L 502 680 L 493 677 L 478 677 L 469 675 Z M 173 676 L 175 681 L 181 681 L 186 686 L 203 696 L 199 693 L 206 690 L 224 687 L 220 684 L 226 683 L 218 678 L 214 678 L 214 681 L 186 682 L 184 684 L 176 676 L 177 675 Z M 338 685 L 327 686 L 317 676 L 318 673 L 321 673 L 291 675 L 296 675 L 296 677 L 281 676 L 288 677 L 278 680 L 277 684 L 266 679 L 269 678 L 266 676 L 268 675 L 256 676 L 263 681 L 264 679 L 284 687 L 278 681 L 283 678 L 301 679 L 322 687 Z M 120 673 L 122 670 L 132 672 L 172 667 L 159 666 L 139 668 L 133 667 L 124 662 L 122 663 Z M 423 658 L 481 657 L 520 650 L 623 649 L 716 661 L 760 670 L 724 658 L 624 645 L 507 646 Z M 472 588 L 445 590 L 443 598 L 444 605 L 442 608 L 467 610 L 466 609 L 469 608 L 469 600 L 470 599 L 471 601 L 470 589 Z M 216 569 L 193 571 L 195 577 L 194 579 L 193 578 L 193 581 L 198 582 L 196 586 L 198 587 L 198 592 L 201 589 L 206 590 L 211 588 L 212 592 L 213 587 L 215 587 L 214 583 L 216 583 L 216 574 L 218 574 Z M 962 567 L 961 566 L 961 571 L 955 579 L 956 580 L 940 596 L 939 595 L 936 599 L 935 598 L 933 601 L 925 605 L 923 608 L 920 608 L 920 610 L 917 610 L 913 614 L 910 614 L 909 616 L 888 627 L 887 626 L 886 628 L 884 627 L 886 628 L 884 629 L 887 641 L 890 637 L 892 638 L 906 630 L 939 607 L 954 592 L 960 583 L 962 577 Z M 706 566 L 703 569 L 703 573 L 704 571 L 704 584 L 705 581 L 708 604 L 707 601 L 709 598 L 710 602 L 714 598 L 719 598 L 720 600 L 725 598 L 726 601 L 726 599 L 729 598 L 732 604 L 732 600 L 730 599 L 732 588 L 730 588 L 730 569 L 721 565 L 712 565 L 711 567 Z M 290 565 L 289 567 L 288 566 L 288 571 L 286 572 L 287 576 L 285 577 L 286 582 L 284 582 L 285 587 L 283 587 L 284 593 L 283 594 L 282 592 L 282 600 L 285 599 L 288 602 L 292 600 L 292 602 L 293 601 L 296 603 L 295 602 L 297 601 L 304 606 L 303 613 L 305 613 L 304 609 L 306 609 L 307 591 L 309 591 L 308 586 L 310 585 L 310 575 L 312 574 L 311 568 L 313 568 L 313 566 Z M 608 563 L 608 579 L 634 578 L 634 565 L 632 562 Z M 251 558 L 250 569 L 248 569 L 249 574 L 247 574 L 248 578 L 246 579 L 247 583 L 245 584 L 246 588 L 244 588 L 245 596 L 249 600 L 251 594 L 250 591 L 253 585 L 254 587 L 253 582 L 255 581 L 254 577 L 256 577 L 256 567 L 258 567 L 257 562 L 254 563 Z M 751 547 L 755 549 L 760 559 L 760 572 L 762 573 L 761 580 L 763 580 L 762 588 L 764 588 L 763 596 L 764 594 L 765 600 L 765 589 L 771 584 L 771 590 L 772 585 L 774 583 L 775 584 L 774 582 L 777 580 L 778 581 L 780 578 L 782 579 L 786 576 L 794 577 L 792 576 L 793 575 L 819 575 L 819 577 L 810 577 L 825 577 L 823 576 L 824 571 L 819 567 L 804 567 L 803 566 L 805 565 L 777 565 L 777 559 L 775 559 L 776 552 L 774 552 L 775 545 L 774 546 L 773 544 L 772 548 L 758 548 L 756 546 L 756 548 Z M 128 508 L 130 510 L 129 513 L 130 510 L 136 516 L 154 527 L 156 522 L 155 520 L 143 512 L 139 513 Z M 663 505 L 660 523 L 662 523 L 665 519 L 690 518 L 695 520 L 698 505 L 667 505 L 663 516 Z M 288 540 L 336 543 L 345 554 L 339 602 L 354 605 L 351 544 L 364 541 L 369 511 L 395 512 L 394 540 L 413 548 L 409 565 L 389 569 L 386 604 L 405 616 L 422 577 L 473 570 L 468 562 L 430 564 L 431 542 L 493 543 L 504 556 L 500 630 L 512 617 L 517 540 L 541 540 L 543 550 L 572 542 L 572 565 L 545 572 L 544 626 L 577 618 L 582 547 L 646 540 L 663 554 L 663 589 L 610 596 L 608 608 L 675 618 L 672 543 L 649 541 L 636 521 L 549 524 L 553 508 L 507 533 L 442 524 L 408 497 L 367 512 L 326 504 L 329 519 L 347 519 L 346 528 L 323 525 L 333 530 Z M 173 489 L 173 496 L 167 498 L 166 495 L 160 504 L 157 517 L 159 538 L 145 572 L 149 548 L 135 540 L 130 515 L 140 567 L 138 572 L 142 575 L 133 625 L 151 610 L 152 613 L 176 514 L 207 514 L 199 544 L 238 543 L 230 537 L 229 532 L 222 529 L 224 517 L 200 512 L 190 502 L 193 498 L 191 496 L 174 496 Z M 803 487 L 798 492 L 801 493 L 798 509 L 806 508 L 803 523 L 831 524 L 836 532 L 826 534 L 825 540 L 809 539 L 813 536 L 810 534 L 788 540 L 828 540 L 844 548 L 855 565 L 861 601 L 863 598 L 880 627 L 883 621 L 877 583 L 883 557 L 892 547 L 896 529 L 892 529 L 881 554 L 877 580 L 869 553 L 857 545 L 857 535 L 864 527 L 897 510 L 897 506 L 890 506 L 860 525 L 860 520 L 854 521 L 853 517 L 854 522 L 847 529 L 854 489 L 848 491 L 853 490 L 851 501 L 848 493 L 801 508 L 807 495 L 800 492 Z M 283 464 L 315 477 L 322 473 L 298 466 L 289 467 Z M 271 461 L 272 467 L 270 468 L 273 470 L 274 466 L 276 469 L 289 510 L 320 521 L 318 510 L 319 498 L 353 498 L 354 496 L 392 495 L 353 496 L 352 498 L 318 498 L 317 504 L 315 500 L 316 497 L 313 493 L 314 492 L 310 492 L 299 481 L 293 481 L 291 477 L 288 477 L 281 472 L 278 474 L 273 462 Z M 333 448 L 335 452 L 331 460 L 328 458 L 324 459 L 319 455 L 335 472 L 334 473 L 339 470 L 339 459 Z M 710 452 L 697 455 L 695 453 L 696 447 L 692 447 L 695 443 L 685 457 L 687 463 L 685 467 L 686 470 L 691 470 L 706 454 Z M 654 428 L 653 437 L 652 435 L 651 437 L 648 434 L 648 428 L 648 443 L 646 452 L 632 483 L 654 482 L 638 481 L 654 443 Z M 362 420 L 350 412 L 335 409 L 330 412 L 328 410 L 324 410 L 326 411 L 322 414 L 313 415 L 311 417 L 308 414 L 309 415 L 306 415 L 306 417 L 301 417 L 301 421 L 299 422 L 295 420 L 295 422 L 293 421 L 296 423 L 292 426 L 291 422 L 292 423 L 289 423 L 289 426 L 287 424 L 288 425 L 285 428 L 275 430 L 260 441 L 284 444 L 304 435 L 307 437 L 309 432 L 316 425 L 334 417 L 347 418 L 347 420 L 355 421 Z M 862 349 L 855 354 L 853 366 L 860 375 L 863 375 L 863 371 L 857 363 L 858 358 L 864 353 L 873 355 L 876 361 L 873 370 L 869 373 L 868 372 L 867 378 L 870 378 L 878 371 L 880 366 L 880 358 L 872 349 Z M 162 349 L 150 350 L 144 359 L 145 370 L 151 378 L 154 380 L 156 378 L 157 382 L 156 372 L 154 373 L 150 370 L 148 362 L 149 358 L 157 352 L 162 354 L 167 360 L 167 365 L 161 372 L 161 375 L 165 374 L 170 369 L 171 360 L 167 352 Z M 424 345 L 421 354 L 422 376 L 426 386 L 440 400 L 462 414 L 471 415 L 475 413 L 477 414 L 478 412 L 484 412 L 498 398 L 499 399 L 498 398 L 501 396 L 504 389 L 502 374 L 494 366 L 489 365 L 487 363 L 488 362 L 486 362 L 486 364 L 494 372 L 493 373 L 480 364 L 493 374 L 492 375 L 495 381 L 491 390 L 482 399 L 472 403 L 460 403 L 446 396 L 429 380 L 427 376 L 426 344 Z M 597 343 L 599 374 L 586 392 L 570 402 L 550 403 L 542 399 L 536 392 L 536 387 L 530 383 L 593 344 L 576 346 L 574 350 L 565 351 L 561 357 L 551 360 L 546 368 L 531 373 L 526 383 L 525 391 L 528 394 L 520 406 L 513 406 L 512 455 L 512 444 L 517 445 L 520 442 L 522 444 L 519 451 L 524 445 L 529 453 L 533 452 L 531 456 L 535 460 L 530 465 L 554 456 L 565 448 L 565 427 L 574 416 L 573 411 L 583 406 L 598 391 L 605 373 L 605 356 Z M 361 316 L 345 322 L 346 347 L 274 362 L 258 376 L 246 378 L 235 373 L 193 390 L 186 406 L 192 426 L 212 434 L 195 417 L 192 403 L 215 384 L 239 383 L 257 402 L 256 413 L 283 402 L 273 396 L 270 376 L 300 360 L 315 361 L 322 368 L 325 380 L 319 391 L 335 388 L 337 370 L 344 385 L 339 387 L 348 388 L 275 412 L 255 422 L 252 436 L 283 418 L 344 395 L 364 401 L 350 385 L 343 366 L 349 329 Z M 251 379 L 256 381 L 262 397 L 267 405 L 263 409 L 255 396 L 250 383 Z M 653 306 L 672 325 L 681 359 L 678 380 L 662 400 L 699 402 L 773 438 L 688 404 L 660 420 L 697 418 L 747 453 L 704 472 L 718 473 L 701 479 L 731 471 L 687 493 L 692 498 L 666 498 L 705 498 L 704 521 L 734 512 L 757 451 L 793 440 L 756 415 L 684 393 L 682 383 L 701 390 L 699 374 L 708 361 L 740 365 L 755 385 L 743 403 L 770 414 L 766 407 L 782 385 L 811 386 L 833 412 L 808 435 L 831 425 L 838 407 L 829 389 L 801 377 L 769 381 L 746 361 L 681 350 L 670 312 Z M 772 380 L 773 382 L 766 402 L 760 409 L 758 407 L 760 399 L 766 386 Z M 395 290 L 397 316 L 398 313 L 451 346 L 448 347 L 442 344 L 432 344 L 434 346 L 433 347 L 434 346 L 444 353 L 458 357 L 461 360 L 468 360 L 478 363 L 451 345 L 452 339 L 460 345 L 441 326 L 431 329 L 428 328 L 423 317 L 419 314 L 420 312 L 415 300 L 416 297 L 413 291 L 414 289 L 411 285 L 406 284 L 404 287 L 403 285 L 396 294 Z M 463 240 L 466 263 L 461 267 L 464 274 L 462 288 L 468 291 L 471 302 L 476 303 L 475 308 L 478 304 L 480 306 L 478 315 L 482 313 L 485 317 L 482 321 L 490 322 L 488 326 L 494 331 L 493 335 L 498 334 L 508 344 L 504 340 L 511 340 L 513 360 L 519 353 L 522 358 L 526 354 L 532 355 L 532 363 L 529 367 L 524 363 L 528 367 L 522 375 L 585 317 L 586 283 L 581 311 L 575 315 L 577 318 L 561 326 L 560 332 L 553 331 L 553 335 L 550 333 L 550 337 L 543 337 L 541 341 L 540 337 L 517 342 L 517 339 L 511 338 L 509 316 L 503 318 L 503 311 L 499 310 L 495 300 L 491 301 L 493 297 L 480 279 L 485 269 L 481 268 L 483 262 L 488 266 L 478 237 Z M 421 234 L 416 233 L 406 235 L 397 240 L 388 249 L 381 276 L 383 286 L 382 281 L 391 263 L 390 261 L 393 252 L 402 243 Z M 607 218 L 603 225 L 602 223 L 600 224 L 600 228 L 595 229 L 596 228 L 598 231 L 599 230 L 606 237 L 609 236 L 611 238 L 615 237 L 621 239 L 628 246 L 635 258 L 635 267 L 642 280 L 641 289 L 643 286 L 644 277 L 646 276 L 644 275 L 643 269 L 644 265 L 646 264 L 646 262 L 644 262 L 644 252 L 646 250 L 643 247 L 643 239 L 640 237 L 638 232 L 634 231 L 635 227 L 633 229 L 630 227 L 632 222 L 630 223 L 624 216 L 625 217 L 622 219 L 619 217 L 620 215 L 622 216 L 620 214 L 615 220 L 614 216 L 611 219 L 610 217 L 609 219 Z M 498 187 L 492 206 L 489 209 L 488 207 L 489 222 L 491 223 L 490 226 L 495 229 L 493 230 L 493 236 L 496 248 L 510 263 L 510 222 L 510 232 L 509 233 L 508 231 L 506 233 L 505 226 L 501 222 L 503 193 L 502 195 L 500 193 L 499 195 L 498 194 Z" fill="#031022" fill-rule="evenodd"/>
<path d="M 583 793 L 569 803 L 566 800 L 565 803 L 564 801 L 557 802 L 556 799 L 555 800 L 546 796 L 548 794 L 546 795 L 544 793 L 545 791 L 546 792 L 546 788 L 544 787 L 544 789 L 541 791 L 539 790 L 539 792 L 536 794 L 534 793 L 535 794 L 532 796 L 531 795 L 530 797 L 529 796 L 529 798 L 526 798 L 522 802 L 521 801 L 522 802 L 519 804 L 518 803 L 516 806 L 510 806 L 512 808 L 511 842 L 512 808 L 514 841 L 516 838 L 517 839 Z M 555 729 L 553 728 L 535 737 L 535 740 L 530 744 L 513 751 L 502 744 L 502 746 L 511 751 L 512 767 L 512 763 L 515 759 L 544 742 Z M 760 708 L 754 711 L 752 710 L 745 715 L 735 718 L 696 738 L 694 737 L 686 743 L 717 730 Z M 350 716 L 350 719 L 390 748 L 392 749 L 391 748 L 393 746 L 394 748 L 393 745 L 392 747 L 391 746 L 392 742 L 389 731 L 371 719 L 372 717 L 388 709 L 385 707 L 383 710 L 369 716 L 362 714 L 353 714 Z M 717 702 L 697 700 L 653 732 L 651 731 L 652 730 L 648 730 L 646 732 L 634 732 L 635 733 L 632 736 L 627 751 L 657 729 L 669 730 L 681 728 L 681 730 Z M 200 693 L 200 695 L 202 694 L 202 696 L 216 703 L 263 719 L 289 724 L 291 726 L 296 725 L 296 727 L 301 726 L 300 728 L 314 728 L 315 726 L 308 721 L 312 720 L 332 724 L 343 732 L 345 736 L 355 737 L 357 735 L 344 720 L 344 715 L 335 709 L 335 712 L 330 716 L 323 716 L 320 714 L 325 718 L 324 719 L 314 717 L 306 719 L 254 703 L 227 689 L 226 686 L 231 686 L 225 683 L 221 684 L 225 687 Z M 468 674 L 511 679 L 510 689 L 482 693 L 487 710 L 499 716 L 495 720 L 504 722 L 510 719 L 512 690 L 514 701 L 532 710 L 527 714 L 532 717 L 549 713 L 549 707 L 570 701 L 566 694 L 574 691 L 513 685 L 515 680 L 579 675 L 737 679 L 607 671 Z M 373 680 L 362 680 L 358 676 L 356 677 L 351 671 L 366 669 L 318 672 L 322 673 L 318 674 L 318 676 L 327 685 L 341 685 Z M 482 657 L 626 655 L 737 667 L 716 662 L 623 650 L 520 651 L 497 653 Z M 896 509 L 880 522 L 864 528 L 858 535 L 859 547 L 865 552 L 869 552 L 872 557 L 877 579 L 881 560 L 880 562 L 879 557 L 881 553 L 882 555 L 882 550 L 890 537 L 891 529 L 894 528 L 891 528 L 887 541 L 882 542 L 872 548 L 866 548 L 858 536 L 881 521 L 885 523 L 889 521 L 892 524 Z M 653 509 L 645 511 L 635 523 L 634 522 L 648 523 Z M 465 499 L 476 523 L 491 524 L 507 532 L 510 531 L 510 521 L 509 524 L 499 522 L 493 518 L 491 515 L 492 514 L 480 510 L 469 502 L 470 501 L 468 502 L 468 500 L 467 501 Z M 249 490 L 256 529 L 258 532 L 268 526 L 267 522 L 265 522 L 266 518 L 265 520 L 265 515 L 264 517 L 259 503 L 254 498 L 250 497 Z M 607 480 L 599 486 L 574 497 L 569 510 L 570 511 L 568 512 L 568 516 L 592 506 L 598 502 L 597 503 L 596 501 L 599 498 L 600 501 Z M 417 478 L 423 500 L 442 511 L 444 510 L 444 512 L 445 510 L 430 491 L 431 489 L 418 481 Z M 864 470 L 816 489 L 807 491 L 808 495 L 806 503 L 801 507 L 808 506 L 806 505 L 808 502 L 849 487 L 851 487 L 851 489 L 854 488 L 854 497 L 846 527 L 850 528 Z M 160 470 L 167 497 L 172 496 L 171 489 L 173 488 L 176 490 L 173 488 L 174 487 L 200 496 L 218 495 L 216 493 L 217 491 L 223 493 L 223 489 L 222 493 L 214 491 L 168 473 L 164 473 Z M 743 465 L 725 473 L 687 484 L 657 489 L 613 491 L 613 493 L 658 497 L 692 497 L 687 497 L 685 495 L 695 487 L 698 488 L 707 482 L 708 479 Z M 652 450 L 639 481 L 655 481 L 673 478 L 679 461 L 676 463 L 670 458 L 667 459 L 663 456 L 660 457 L 655 453 L 652 454 Z M 111 446 L 114 448 L 110 451 L 111 460 L 112 458 L 113 465 L 116 467 L 115 470 L 116 468 L 116 472 L 119 474 L 118 478 L 119 476 L 127 501 L 157 521 L 153 528 L 129 510 L 136 540 L 142 543 L 135 538 L 135 522 L 139 523 L 140 519 L 154 529 L 151 544 L 149 546 L 144 544 L 150 548 L 145 571 L 148 558 L 158 538 L 158 522 L 156 519 L 159 508 L 158 498 L 156 498 L 156 491 L 155 493 L 147 465 Z M 520 443 L 517 446 L 515 445 L 516 444 L 513 444 L 512 470 L 515 471 L 515 469 L 521 467 L 523 468 L 526 465 L 528 466 L 528 464 L 531 465 L 530 464 L 534 460 L 532 459 L 532 456 L 530 456 L 532 452 L 529 454 L 528 451 L 524 449 L 524 446 L 520 452 L 518 451 L 521 444 Z M 919 442 L 877 464 L 872 487 L 870 491 L 869 488 L 870 492 L 868 492 L 868 498 L 866 499 L 860 524 L 896 502 L 896 498 L 898 498 L 897 496 L 899 495 L 904 482 L 903 479 L 904 478 L 905 480 L 904 477 L 906 477 L 905 474 L 906 473 L 907 475 L 908 468 L 909 470 L 908 467 L 910 467 L 909 464 L 911 464 L 910 460 L 913 455 L 914 457 L 913 454 L 915 454 Z M 371 423 L 371 447 L 372 445 L 374 450 L 372 450 L 374 454 L 375 452 L 377 455 L 376 458 L 375 456 L 376 460 L 371 462 L 358 460 L 348 464 L 345 460 L 351 478 L 386 482 L 378 465 L 379 462 L 382 464 L 382 460 L 392 480 L 395 483 L 403 483 L 395 483 L 382 459 L 381 461 L 379 456 L 381 456 L 380 454 L 379 456 L 378 455 L 379 451 L 377 439 L 377 441 L 375 441 L 377 426 Z M 735 420 L 737 422 L 736 423 L 762 438 L 772 438 L 745 422 Z M 347 419 L 334 418 L 316 426 L 309 434 L 310 435 L 311 433 L 312 434 L 325 427 Z M 676 419 L 687 423 L 690 422 L 690 424 L 693 423 L 693 425 L 696 424 L 697 425 L 695 426 L 702 428 L 717 437 L 716 439 L 714 438 L 704 440 L 702 442 L 699 441 L 698 443 L 696 442 L 693 447 L 697 447 L 697 454 L 705 452 L 706 455 L 705 454 L 707 452 L 711 452 L 724 446 L 735 450 L 736 449 L 743 454 L 746 453 L 740 451 L 735 445 L 717 434 L 708 425 L 697 419 L 690 417 L 681 417 Z M 790 383 L 782 386 L 772 397 L 767 407 L 768 412 L 770 413 L 768 414 L 785 422 L 779 416 L 778 407 L 784 394 L 792 388 L 807 391 L 814 395 L 822 405 L 822 411 L 816 421 L 807 429 L 799 430 L 799 433 L 793 435 L 776 425 L 780 434 L 795 440 L 795 438 L 798 439 L 805 437 L 806 435 L 808 436 L 807 435 L 822 424 L 832 412 L 831 404 L 816 390 L 802 384 Z M 193 403 L 196 417 L 210 434 L 263 446 L 269 461 L 260 465 L 271 467 L 272 460 L 278 473 L 299 480 L 316 495 L 317 503 L 318 497 L 411 492 L 351 487 L 290 469 L 297 465 L 278 455 L 299 446 L 331 459 L 335 450 L 328 442 L 306 436 L 284 445 L 260 442 L 266 435 L 261 432 L 264 430 L 252 435 L 254 422 L 268 415 L 225 435 L 226 429 L 209 424 L 201 403 L 213 391 L 231 388 L 247 408 L 240 421 L 260 412 L 237 383 L 212 386 Z M 662 375 L 643 378 L 642 371 L 641 395 L 639 406 L 637 408 L 649 401 L 662 390 L 663 387 L 662 390 L 660 390 Z M 362 377 L 361 384 L 363 384 L 363 390 L 373 399 L 385 406 L 382 371 L 381 377 Z M 427 370 L 430 380 L 442 392 L 460 402 L 472 402 L 482 398 L 492 387 L 491 385 L 470 395 L 457 396 L 438 384 L 430 376 L 428 368 Z M 705 364 L 700 374 L 700 387 L 702 390 L 698 391 L 717 395 L 712 393 L 707 387 L 707 379 L 710 372 L 716 367 L 732 368 L 738 370 L 747 379 L 747 386 L 744 393 L 739 398 L 730 399 L 723 397 L 746 405 L 742 403 L 749 400 L 753 391 L 754 385 L 752 374 L 744 368 L 728 362 L 714 361 Z M 317 363 L 309 361 L 295 362 L 284 366 L 272 374 L 270 382 L 271 390 L 279 401 L 284 402 L 280 404 L 299 397 L 321 392 L 318 391 L 322 387 L 324 378 L 322 370 Z M 314 373 L 315 388 L 308 394 L 290 398 L 282 395 L 278 389 L 278 377 L 287 370 L 306 367 Z M 445 354 L 489 380 L 494 381 L 491 375 L 492 372 L 487 371 L 484 368 L 485 367 L 482 367 L 482 365 L 481 366 L 478 362 L 465 362 Z M 598 352 L 598 365 L 596 373 L 585 385 L 575 392 L 564 397 L 550 394 L 537 387 L 537 392 L 542 398 L 554 403 L 567 402 L 576 398 L 589 388 L 598 374 Z M 350 343 L 350 347 L 344 357 L 344 366 L 351 385 L 352 383 L 349 368 Z M 484 262 L 483 263 L 485 265 L 483 267 L 482 266 L 484 269 L 482 273 L 484 275 L 481 279 L 484 282 L 485 288 L 486 287 L 494 297 L 492 301 L 495 299 L 501 311 L 500 312 L 503 310 L 504 314 L 502 314 L 506 315 L 504 318 L 508 316 L 509 321 L 509 317 L 511 320 L 511 299 L 510 302 L 507 298 L 509 295 L 502 295 L 503 291 L 494 282 L 495 280 L 496 281 L 492 278 L 493 276 Z M 428 251 L 424 252 L 422 263 L 419 260 L 414 261 L 401 269 L 394 281 L 394 292 L 395 289 L 396 293 L 403 284 L 404 286 L 406 283 L 411 284 L 415 289 L 414 291 L 416 293 L 416 300 L 421 312 L 420 314 L 424 317 L 429 328 L 431 328 L 429 326 L 430 321 L 425 298 L 426 290 L 425 292 L 424 291 L 424 274 L 422 272 L 423 256 L 427 254 Z M 586 254 L 583 254 L 581 251 L 569 245 L 576 253 L 574 255 L 578 256 L 577 263 L 579 268 L 577 271 L 579 272 L 577 281 L 579 282 L 571 292 L 573 296 L 571 298 L 570 296 L 568 301 L 569 306 L 565 305 L 567 308 L 563 313 L 558 316 L 555 321 L 550 323 L 549 321 L 544 326 L 538 329 L 536 327 L 533 331 L 531 329 L 526 333 L 525 330 L 527 329 L 524 332 L 520 329 L 515 330 L 516 332 L 513 333 L 512 325 L 513 339 L 515 340 L 517 338 L 517 341 L 520 338 L 523 340 L 523 343 L 522 341 L 526 341 L 526 338 L 531 339 L 535 336 L 537 338 L 540 336 L 541 340 L 543 336 L 546 338 L 548 334 L 550 336 L 550 332 L 553 334 L 557 329 L 560 331 L 563 324 L 576 318 L 574 317 L 575 314 L 578 316 L 577 313 L 581 310 L 580 307 L 585 283 L 587 283 L 586 261 L 588 261 L 588 265 L 588 256 L 587 257 Z M 454 242 L 450 239 L 446 239 L 445 242 L 443 241 L 442 244 L 440 243 L 437 247 L 436 246 L 432 249 L 429 242 L 430 241 L 428 244 L 430 249 L 433 250 L 433 253 L 437 254 L 451 244 L 454 244 Z M 607 238 L 609 237 L 627 254 L 635 265 L 634 266 L 636 269 L 634 258 L 627 246 L 621 240 L 615 238 L 611 239 L 609 237 Z M 705 224 L 700 227 L 696 242 L 688 261 L 689 262 L 687 263 L 681 277 L 680 284 L 678 285 L 670 305 L 665 311 L 668 314 L 700 233 Z M 504 167 L 499 182 L 500 185 L 498 185 L 499 194 L 500 192 L 501 194 L 503 192 L 504 193 L 502 222 L 506 226 L 506 232 L 508 230 L 509 232 L 510 199 L 509 203 L 504 200 L 506 170 L 504 170 Z" fill="#0f2c4f" fill-rule="evenodd"/>
<path d="M 746 456 L 727 447 L 717 449 L 705 456 L 690 475 L 724 466 Z M 278 456 L 300 466 L 335 475 L 317 454 L 299 447 Z M 309 233 L 294 235 L 271 245 L 256 256 L 242 271 L 227 279 L 195 285 L 177 284 L 210 314 L 193 345 L 226 345 L 252 340 L 271 333 L 293 314 L 308 306 L 336 299 Z" fill="#a31623" fill-rule="evenodd"/>
<path d="M 678 731 L 659 735 L 656 738 L 652 735 L 654 732 L 627 752 L 627 757 L 625 757 L 626 760 L 625 761 L 624 759 L 624 766 L 625 764 L 629 766 L 629 768 L 631 764 L 633 765 L 632 766 L 634 762 L 637 762 L 640 758 L 641 759 L 643 756 L 644 757 L 647 753 L 648 754 Z M 359 727 L 371 738 L 374 745 L 368 749 L 391 767 L 392 766 L 395 770 L 396 769 L 399 771 L 399 773 L 402 773 L 396 754 Z M 431 707 L 480 729 L 480 720 L 495 723 L 503 722 L 497 723 L 496 722 L 498 721 L 494 722 L 494 720 L 444 706 L 442 706 L 444 707 L 442 711 Z M 605 701 L 584 709 L 582 707 L 586 704 L 554 712 L 554 714 L 550 713 L 553 714 L 551 715 L 557 720 L 560 720 L 590 707 L 593 708 L 593 706 L 595 707 Z M 512 691 L 511 719 L 508 723 L 505 723 L 511 724 L 532 718 L 531 715 L 526 714 L 532 711 L 522 708 L 513 701 Z M 414 677 L 545 670 L 685 673 L 612 669 L 536 669 Z M 412 675 L 407 675 L 401 669 L 402 666 L 405 666 L 366 668 L 366 670 L 363 670 L 377 678 Z M 899 527 L 893 523 L 892 525 L 889 522 L 886 524 L 881 522 L 859 536 L 862 538 L 887 523 L 888 530 L 886 538 L 883 541 L 867 547 L 865 545 L 866 547 L 872 547 L 882 541 L 887 540 L 891 527 Z M 202 410 L 211 425 L 219 429 L 226 430 L 223 433 L 224 432 L 225 434 L 230 435 L 271 412 L 324 393 L 299 398 L 265 410 L 243 420 L 242 419 L 246 414 L 246 408 L 240 396 L 234 390 L 222 389 L 213 392 L 204 399 L 202 403 Z M 231 393 L 240 412 L 218 424 L 207 405 Z M 694 392 L 753 412 L 793 434 L 799 432 L 799 429 L 810 426 L 821 411 L 821 405 L 814 396 L 796 389 L 789 390 L 780 404 L 779 412 L 784 422 L 758 410 L 722 397 L 739 397 L 746 386 L 746 379 L 738 371 L 728 368 L 716 368 L 709 376 L 708 387 L 712 392 L 717 394 L 717 396 Z M 793 393 L 816 405 L 806 424 L 792 418 L 784 412 Z M 715 373 L 718 371 L 743 378 L 744 381 L 740 393 L 736 394 L 713 387 L 712 385 Z M 313 373 L 306 368 L 295 369 L 283 373 L 278 380 L 280 391 L 282 394 L 290 397 L 312 391 L 314 388 Z M 307 371 L 312 386 L 310 388 L 286 394 L 279 379 L 285 376 Z M 646 350 L 644 361 L 643 356 L 643 377 L 663 375 L 661 386 L 662 391 L 650 401 L 653 399 L 654 400 L 652 402 L 660 399 L 659 398 L 661 396 L 655 400 L 653 399 L 662 391 L 662 387 L 664 387 L 665 372 L 661 373 L 657 366 L 661 359 L 652 355 L 651 353 L 648 353 Z M 364 336 L 367 337 L 362 343 L 360 343 L 359 346 L 358 343 L 360 385 L 362 390 L 380 405 L 378 407 L 380 406 L 380 408 L 384 410 L 386 409 L 387 411 L 397 415 L 369 397 L 362 390 L 362 384 L 360 384 L 360 379 L 362 376 L 381 376 L 380 331 Z M 742 244 L 719 290 L 714 306 L 727 312 L 751 332 L 762 337 L 784 343 L 799 344 L 797 345 L 829 346 L 830 345 L 814 314 L 833 294 L 835 295 L 844 286 L 840 290 L 840 285 L 806 283 L 806 281 L 799 280 L 781 271 L 768 257 L 752 245 L 750 246 L 749 243 L 749 245 Z M 728 235 L 718 233 L 714 234 L 688 299 L 695 300 L 700 298 L 726 236 Z" fill="#0755ad" fill-rule="evenodd"/>
<path d="M 395 715 L 407 731 L 407 741 L 422 751 L 424 750 L 425 753 L 427 752 L 429 739 L 431 737 L 429 734 L 430 733 L 428 734 L 428 732 L 405 719 L 401 720 Z M 311 731 L 319 733 L 317 735 L 347 742 L 343 743 L 350 742 L 352 744 L 361 744 L 369 751 L 367 749 L 373 745 L 370 738 L 358 728 L 359 726 L 360 727 L 343 715 L 346 718 L 345 720 L 357 733 L 358 735 L 355 738 Z M 652 509 L 633 509 L 632 508 L 634 507 L 624 508 L 624 506 L 612 507 L 610 509 L 608 508 L 598 517 L 597 516 L 582 524 L 601 523 L 618 511 L 643 512 L 645 510 Z M 418 479 L 432 489 L 431 491 L 446 510 L 445 512 L 443 511 L 462 519 L 462 516 L 461 518 L 458 516 L 449 496 L 432 489 Z M 771 474 L 769 476 L 768 474 L 757 524 L 758 522 L 759 524 L 761 522 L 764 525 L 767 524 L 772 504 L 773 506 L 772 500 L 773 499 L 774 501 L 773 496 L 775 496 L 777 477 L 776 479 Z M 246 473 L 249 487 L 248 490 L 250 490 L 251 497 L 254 497 L 260 503 L 265 519 L 257 480 L 255 480 L 256 475 L 255 477 L 253 473 L 252 475 L 247 475 Z M 466 456 L 467 459 L 472 461 L 472 463 L 474 462 L 476 466 L 475 465 L 477 464 L 497 476 L 495 474 L 496 470 L 492 467 L 493 466 Z M 263 448 L 264 449 L 259 453 L 260 455 L 254 469 L 260 464 L 266 465 L 265 464 L 268 461 L 269 462 Z M 655 443 L 652 453 L 655 452 L 660 456 L 663 455 L 667 458 L 670 457 L 674 461 L 678 461 L 679 466 L 678 464 L 680 464 L 679 462 L 685 452 L 672 447 L 668 448 L 668 446 L 665 447 L 665 445 L 660 446 L 660 444 L 657 445 Z M 377 464 L 369 443 L 339 451 L 344 460 L 345 459 L 348 463 L 358 459 L 363 459 L 368 461 L 375 460 Z M 647 427 L 645 428 L 646 427 L 647 430 L 644 431 L 631 455 L 623 465 L 622 463 L 623 467 L 622 468 L 621 466 L 618 482 L 626 482 L 624 481 L 638 462 L 639 464 L 646 445 Z M 377 427 L 379 450 L 392 478 L 395 482 L 406 483 L 406 477 L 404 477 L 405 473 L 404 475 L 386 443 L 379 435 L 378 437 L 377 436 Z M 120 415 L 122 427 L 133 435 L 170 454 L 172 453 L 177 457 L 180 456 L 180 458 L 183 458 L 182 459 L 185 458 L 185 460 L 188 459 L 189 460 L 187 461 L 193 461 L 188 459 L 185 456 L 187 455 L 182 453 L 180 450 L 181 447 L 190 449 L 150 434 L 133 425 Z M 905 413 L 892 425 L 891 424 L 869 436 L 827 451 L 832 449 L 835 450 L 826 455 L 817 466 L 821 467 L 819 466 L 824 466 L 826 463 L 829 464 L 832 461 L 834 462 L 851 455 L 889 436 L 902 426 Z M 395 305 L 391 311 L 391 327 L 389 328 L 407 417 L 430 441 L 457 462 L 440 418 L 412 392 L 403 357 L 404 352 L 398 330 Z M 630 285 L 627 290 L 625 288 L 627 285 L 624 287 L 626 292 L 624 295 L 622 293 L 625 296 L 622 305 L 625 306 L 623 312 L 624 314 L 627 313 L 628 323 L 620 365 L 612 393 L 584 418 L 577 436 L 578 438 L 576 438 L 577 441 L 575 441 L 576 444 L 572 448 L 570 460 L 600 436 L 617 417 L 630 357 L 629 351 L 631 352 L 630 345 L 632 346 L 632 337 L 633 341 L 633 324 L 629 318 L 628 309 Z M 492 257 L 498 264 L 495 268 L 500 277 L 511 287 L 511 274 L 509 272 L 508 273 L 495 260 L 496 259 Z M 433 254 L 434 256 L 430 259 L 432 282 L 434 282 L 434 292 L 438 305 Z M 571 245 L 569 246 L 569 244 L 554 238 L 552 240 L 557 243 L 559 249 L 563 249 L 561 255 L 566 261 L 565 264 L 569 268 L 568 271 L 571 275 L 563 289 L 565 291 L 563 293 L 562 291 L 563 294 L 559 295 L 560 298 L 557 298 L 557 301 L 554 302 L 555 304 L 552 306 L 552 309 L 550 307 L 546 312 L 540 313 L 539 316 L 534 313 L 528 317 L 528 313 L 526 314 L 525 311 L 523 313 L 525 316 L 522 318 L 518 314 L 521 311 L 518 312 L 515 309 L 517 313 L 512 313 L 512 305 L 513 332 L 519 328 L 523 331 L 525 329 L 526 332 L 532 328 L 534 332 L 533 329 L 536 326 L 538 328 L 549 320 L 551 323 L 550 322 L 555 320 L 566 308 L 564 307 L 566 305 L 568 306 L 567 301 L 569 296 L 572 296 L 570 292 L 578 282 L 576 281 L 578 278 L 576 259 L 578 259 L 577 256 L 575 257 L 573 255 L 575 253 Z M 475 224 L 453 235 L 439 245 L 449 238 L 455 242 L 453 244 L 462 239 L 476 235 Z M 519 164 L 519 178 L 523 204 L 525 205 L 524 213 L 530 245 L 534 236 L 536 210 L 528 193 Z" fill="#3d556d" fill-rule="evenodd"/>
<path d="M 472 757 L 473 758 L 470 759 L 469 778 L 474 782 L 473 783 L 475 782 L 477 784 L 476 785 L 478 784 L 479 787 L 481 786 L 481 788 L 484 788 L 486 791 L 510 805 L 509 789 L 511 779 L 475 759 L 474 760 Z M 428 733 L 432 736 L 430 739 L 428 752 L 426 753 L 422 750 L 441 763 L 442 762 L 444 765 L 448 765 L 446 759 L 447 745 L 442 740 Z M 264 726 L 269 728 L 267 729 L 272 728 L 273 729 L 271 730 L 276 729 L 277 730 L 275 731 L 280 730 L 280 732 L 290 732 L 291 733 L 289 734 L 294 733 L 294 735 L 300 734 L 300 736 L 305 735 L 305 737 L 310 736 L 311 738 L 317 737 L 317 739 L 322 738 L 324 740 L 346 742 L 320 737 L 316 735 L 318 733 L 276 723 L 271 724 L 270 723 L 272 722 L 267 723 Z M 375 720 L 384 727 L 386 726 L 387 729 L 407 740 L 407 734 L 402 724 L 391 714 L 388 713 Z M 897 525 L 901 527 L 895 527 L 899 529 L 903 527 L 904 528 L 901 530 L 904 529 L 913 532 L 924 538 L 935 550 L 937 562 L 931 576 L 917 590 L 896 604 L 885 609 L 887 610 L 888 617 L 891 618 L 920 602 L 938 589 L 949 578 L 956 563 L 953 551 L 942 541 L 925 533 Z M 493 467 L 497 470 L 497 477 L 510 487 L 511 473 Z M 259 452 L 245 463 L 245 473 L 252 474 L 253 472 L 256 480 L 255 469 L 254 470 L 253 467 L 258 458 Z M 834 450 L 831 449 L 831 451 L 828 450 L 828 452 L 825 451 L 825 453 L 822 452 L 823 453 L 819 453 L 819 455 L 815 454 L 815 456 L 812 455 L 811 457 L 809 456 L 785 463 L 782 479 L 783 486 L 782 487 L 781 485 L 782 490 L 780 491 L 780 501 L 778 502 L 779 507 L 777 507 L 778 513 L 777 514 L 776 512 L 777 517 L 775 517 L 776 520 L 773 524 L 787 523 L 792 503 L 796 475 L 824 465 L 819 467 L 816 466 L 826 454 Z M 761 449 L 760 451 L 763 458 L 770 468 L 769 475 L 771 473 L 776 478 L 777 476 L 778 479 L 777 475 L 779 472 L 779 463 Z M 181 448 L 183 451 L 182 452 L 188 455 L 186 456 L 191 460 L 189 461 L 184 459 L 225 473 L 228 476 L 233 507 L 234 503 L 236 507 L 236 512 L 234 512 L 234 509 L 236 520 L 237 518 L 238 519 L 237 523 L 238 521 L 240 525 L 250 527 L 249 517 L 247 516 L 248 512 L 246 511 L 247 507 L 244 501 L 245 497 L 243 496 L 244 491 L 242 491 L 243 485 L 239 464 L 192 449 L 189 450 L 189 448 Z M 646 428 L 631 444 L 623 461 L 622 467 L 623 463 L 636 446 Z M 378 428 L 378 436 L 379 434 L 387 443 L 404 474 L 397 451 L 388 437 Z M 275 354 L 268 353 L 270 354 L 263 354 L 265 355 L 260 357 L 254 356 L 256 357 L 250 357 L 251 359 L 246 358 L 247 360 L 242 359 L 242 361 L 238 360 L 239 362 L 233 361 L 235 362 L 226 363 L 226 365 L 222 364 L 222 366 L 218 365 L 215 368 L 211 367 L 213 368 L 206 371 L 201 370 L 203 371 L 195 372 L 195 374 L 192 373 L 192 375 L 189 374 L 189 376 L 186 375 L 186 377 L 183 376 L 181 379 L 172 380 L 172 382 L 169 381 L 169 383 L 164 383 L 164 385 L 161 384 L 128 408 L 128 411 L 136 418 L 135 414 L 153 399 L 177 387 L 181 383 L 187 383 L 193 377 L 197 377 L 206 371 L 217 371 L 218 375 L 233 370 L 234 367 L 240 368 L 257 363 L 260 357 L 263 359 L 260 362 L 274 359 L 271 357 Z M 721 353 L 780 366 L 815 378 L 817 375 L 819 377 L 825 377 L 851 389 L 862 389 L 873 394 L 876 392 L 867 388 L 867 386 L 863 386 L 865 385 L 862 386 L 862 384 L 856 383 L 858 382 L 855 383 L 855 381 L 849 381 L 849 379 L 846 379 L 847 378 L 844 379 L 844 377 L 841 378 L 841 376 L 838 377 L 838 375 L 835 376 L 835 374 L 832 375 L 832 373 L 829 374 L 829 372 L 826 373 L 826 371 L 819 371 L 819 369 L 812 369 L 812 367 L 809 368 L 808 366 L 802 366 L 794 362 L 791 363 L 790 361 L 787 362 L 786 360 L 766 357 L 761 354 L 756 355 L 756 353 L 750 354 L 751 352 L 746 353 L 746 351 L 740 352 L 741 350 L 735 351 L 736 349 L 723 349 L 725 351 Z M 608 253 L 612 257 L 610 259 L 607 258 L 607 262 L 605 262 L 606 267 L 608 266 L 611 269 L 609 270 L 609 275 L 611 276 L 610 283 L 612 286 L 610 288 L 610 295 L 612 299 L 611 309 L 613 310 L 611 312 L 614 315 L 612 316 L 612 321 L 612 319 L 614 320 L 624 313 L 622 312 L 622 308 L 624 306 L 623 307 L 621 305 L 624 296 L 621 293 L 623 292 L 624 294 L 625 292 L 624 286 L 628 290 L 627 289 L 630 284 L 631 285 L 631 281 L 622 266 Z M 553 237 L 548 236 L 545 246 L 547 248 L 544 250 L 548 255 L 553 257 L 552 259 L 551 258 L 552 260 L 554 258 L 556 259 L 555 267 L 556 266 L 559 268 L 563 279 L 561 287 L 551 296 L 550 300 L 549 298 L 546 301 L 545 300 L 546 301 L 544 303 L 542 302 L 540 304 L 537 302 L 528 302 L 527 299 L 524 301 L 516 295 L 517 294 L 513 297 L 512 296 L 513 313 L 516 313 L 514 311 L 515 308 L 521 312 L 519 314 L 522 317 L 524 316 L 522 313 L 525 310 L 528 316 L 531 313 L 534 315 L 534 312 L 539 315 L 540 312 L 542 313 L 546 311 L 550 306 L 552 308 L 551 306 L 554 304 L 553 302 L 556 301 L 556 298 L 559 298 L 558 295 L 560 295 L 560 293 L 562 294 L 564 291 L 562 289 L 566 284 L 569 275 L 571 277 L 567 271 L 568 268 L 564 264 L 565 261 L 560 255 L 562 249 L 560 248 L 561 249 L 559 250 L 557 248 L 558 246 L 556 243 L 551 240 Z M 454 223 L 451 221 L 439 226 L 426 235 L 427 238 L 430 240 L 429 241 L 453 224 L 454 225 Z M 520 211 L 521 216 L 519 219 L 520 221 L 515 227 L 517 227 L 515 231 L 516 230 L 517 232 L 514 235 L 515 238 L 513 247 L 512 241 L 512 263 L 516 261 L 529 246 L 525 220 L 523 218 L 524 214 Z" fill="#6a8aa4" fill-rule="evenodd"/>
<path d="M 594 707 L 560 721 L 557 721 L 550 715 L 553 713 L 511 725 L 497 722 L 499 722 L 499 724 L 480 721 L 479 729 L 450 717 L 466 724 L 466 726 L 469 725 L 475 728 L 475 730 L 480 730 L 488 735 L 487 736 L 512 747 L 547 730 L 547 728 L 549 729 L 549 727 L 551 728 L 551 726 L 553 727 L 553 725 L 555 726 L 555 724 L 557 725 L 557 723 L 559 724 L 559 722 L 561 723 L 568 718 L 572 718 L 572 716 L 574 717 L 574 715 L 576 716 L 577 714 L 578 715 Z M 534 721 L 536 723 L 534 729 L 527 736 L 512 745 L 510 743 L 510 726 L 512 724 L 515 724 L 516 726 Z M 718 666 L 722 666 L 724 668 L 719 670 L 721 674 L 724 675 L 719 676 L 773 683 L 821 694 L 773 676 Z M 402 667 L 407 674 L 441 672 L 434 670 L 434 666 L 437 665 L 410 665 Z M 80 694 L 166 676 L 179 671 L 215 667 L 209 667 L 208 664 L 248 662 L 244 662 L 244 660 L 254 661 L 224 662 L 118 676 L 117 674 L 123 654 L 122 649 L 119 657 L 108 672 L 94 685 Z M 176 671 L 164 675 L 122 682 L 97 689 L 93 688 L 112 678 L 162 671 Z M 361 592 L 358 600 L 356 598 L 353 616 L 355 627 L 364 633 L 399 632 L 402 612 L 386 613 L 382 609 L 383 602 L 381 593 Z M 248 620 L 249 634 L 260 640 L 304 638 L 318 635 L 325 631 L 332 621 L 337 594 L 336 596 L 334 593 L 314 592 L 310 599 L 309 597 L 307 612 L 303 617 L 279 618 L 277 616 L 277 610 L 281 592 L 280 594 L 279 592 L 257 593 L 256 597 L 252 601 Z M 242 592 L 216 593 L 209 620 L 204 624 L 187 626 L 180 625 L 187 591 L 161 592 L 161 594 L 159 594 L 160 597 L 158 598 L 146 652 L 204 646 L 222 640 L 231 632 L 235 625 Z M 793 394 L 785 412 L 806 423 L 815 405 Z M 792 407 L 795 403 L 802 404 L 806 407 L 807 413 L 803 416 L 798 415 L 793 411 Z M 231 394 L 208 405 L 218 423 L 239 412 Z M 231 406 L 232 411 L 224 417 L 216 416 L 214 410 L 218 405 L 226 403 Z M 673 374 L 669 377 L 666 388 L 664 388 L 663 391 L 653 400 L 638 410 L 657 401 L 669 390 L 672 384 Z M 716 373 L 713 386 L 739 393 L 743 379 L 723 373 Z M 307 372 L 280 379 L 285 392 L 287 393 L 310 387 Z M 597 345 L 582 353 L 581 369 L 572 379 L 566 382 L 556 382 L 544 375 L 532 383 L 542 389 L 558 395 L 565 395 L 574 391 L 590 379 L 594 374 L 597 360 Z M 428 345 L 428 365 L 430 373 L 436 381 L 456 394 L 468 394 L 492 383 L 478 374 L 467 382 L 457 382 L 452 380 L 443 370 L 443 354 Z M 645 331 L 644 360 L 644 353 L 646 349 L 648 352 L 651 352 L 662 359 L 658 366 L 661 372 L 664 372 L 666 365 L 666 337 Z M 355 324 L 352 331 L 351 374 L 353 376 L 353 384 L 355 389 L 367 401 L 380 407 L 361 389 L 360 390 L 358 388 L 355 376 L 351 372 L 353 366 L 353 338 Z M 640 280 L 639 282 L 637 281 L 635 283 L 633 293 L 635 297 L 631 303 L 636 308 L 634 319 L 635 324 L 638 303 L 638 306 L 636 306 L 635 298 L 638 296 L 639 300 Z M 394 275 L 385 278 L 386 280 L 384 280 L 385 299 L 389 323 L 389 305 L 393 301 L 394 279 L 393 280 L 392 278 Z M 752 246 L 739 239 L 727 236 L 701 298 L 696 300 L 714 305 L 714 299 L 739 247 L 742 243 Z" fill="#0cb7eb" fill-rule="evenodd"/>
<path d="M 444 742 L 448 745 L 447 759 L 449 765 L 447 766 L 444 764 L 482 788 L 468 778 L 469 759 L 472 758 Z M 184 697 L 195 704 L 220 715 L 248 724 L 294 734 L 266 728 L 263 726 L 267 722 L 273 723 L 229 710 L 196 694 L 191 698 L 187 699 Z M 681 696 L 666 696 L 657 693 L 654 696 L 653 695 L 654 696 L 652 698 L 650 697 L 651 698 L 648 698 L 647 701 L 645 700 L 645 702 L 642 702 L 642 704 L 640 703 L 641 704 L 639 706 L 637 705 L 638 706 L 636 708 L 634 707 L 635 708 L 632 710 L 631 709 L 631 711 L 626 712 L 626 714 L 624 713 L 625 714 L 622 717 L 631 730 L 652 714 L 653 715 L 655 712 L 656 713 L 656 711 L 659 711 L 659 709 L 662 709 L 662 707 L 665 707 L 664 706 L 667 704 L 668 705 L 667 704 L 670 702 L 671 703 L 670 702 L 672 700 L 674 701 L 673 700 L 675 698 L 677 699 Z M 782 625 L 784 630 L 790 636 L 799 640 L 825 643 L 841 637 L 843 639 L 844 646 L 863 650 L 861 637 L 860 639 L 853 637 L 838 637 L 834 639 L 833 637 L 831 638 L 825 635 L 813 635 L 802 633 L 800 631 L 794 631 L 793 629 L 786 627 L 784 628 Z M 682 616 L 682 630 L 703 631 L 703 623 L 702 629 L 695 623 L 687 623 L 686 622 L 688 621 L 683 621 Z M 416 619 L 418 624 L 425 628 L 453 628 L 472 621 L 469 622 L 465 616 L 467 615 L 443 614 L 440 617 L 430 621 L 418 621 Z M 655 425 L 656 442 L 685 450 L 686 452 L 686 450 L 690 447 L 691 439 L 688 440 L 668 425 Z M 370 424 L 369 425 L 366 423 L 350 426 L 343 435 L 338 439 L 333 440 L 333 446 L 336 447 L 336 450 L 341 457 L 338 452 L 338 448 L 342 449 L 341 448 L 344 448 L 345 446 L 348 447 L 368 442 L 368 431 Z M 789 372 L 792 371 L 792 373 L 795 372 L 795 374 L 798 373 L 798 375 L 801 374 L 801 376 L 804 375 L 804 377 L 807 376 L 812 378 L 812 380 L 820 381 L 840 392 L 848 400 L 852 409 L 847 419 L 836 427 L 815 437 L 820 437 L 823 441 L 827 441 L 828 444 L 858 434 L 881 423 L 896 411 L 897 406 L 901 410 L 905 408 L 902 405 L 900 406 L 898 402 L 893 401 L 893 399 L 848 379 L 877 392 L 873 395 L 868 394 L 862 390 L 844 388 L 825 378 L 817 376 L 815 379 L 792 371 Z M 239 369 L 234 368 L 233 371 L 221 375 L 217 372 L 206 372 L 197 378 L 193 378 L 187 384 L 181 384 L 153 400 L 134 417 L 127 411 L 127 408 L 158 386 L 136 396 L 118 409 L 124 411 L 126 407 L 133 417 L 144 424 L 191 443 L 200 435 L 207 436 L 194 431 L 192 427 L 185 425 L 175 415 L 175 406 L 175 411 L 173 411 L 174 402 L 186 391 L 188 392 L 191 388 L 193 389 L 193 387 L 195 388 L 196 385 Z M 343 342 L 336 346 L 333 344 L 324 346 L 311 345 L 311 347 L 305 346 L 304 348 L 294 348 L 244 359 L 275 353 L 276 355 L 272 358 L 279 360 L 279 358 L 283 359 L 283 357 L 287 358 L 287 356 L 293 357 L 291 356 L 296 354 L 302 355 L 302 353 L 311 351 L 317 352 L 315 351 L 336 347 L 337 345 L 343 346 Z M 680 342 L 680 347 L 690 349 L 695 348 L 697 350 L 701 349 L 702 351 L 706 350 L 707 352 L 718 354 L 726 348 L 733 349 L 686 341 Z M 545 250 L 538 264 L 542 265 L 542 267 L 544 266 L 549 269 L 550 268 L 551 271 L 554 271 L 554 273 L 556 273 L 555 276 L 557 280 L 555 281 L 557 283 L 548 294 L 541 297 L 526 293 L 522 288 L 526 284 L 521 291 L 517 292 L 513 296 L 516 294 L 524 300 L 527 298 L 528 301 L 537 301 L 540 303 L 542 301 L 544 302 L 549 297 L 549 300 L 550 296 L 560 287 L 555 292 L 553 291 L 559 283 L 561 285 L 562 279 L 558 268 L 555 266 L 555 259 L 552 261 L 550 259 L 552 257 L 548 256 L 544 251 Z M 605 249 L 603 276 L 599 298 L 599 312 L 601 316 L 600 325 L 604 326 L 604 324 L 607 324 L 614 319 L 611 321 L 610 320 L 611 316 L 613 315 L 610 312 L 612 310 L 610 309 L 611 299 L 609 295 L 609 288 L 611 286 L 609 283 L 610 276 L 608 275 L 608 270 L 610 269 L 605 265 L 606 258 L 611 257 Z M 551 227 L 555 233 L 562 236 L 566 240 L 564 241 L 569 241 L 569 243 L 570 242 L 574 246 L 589 254 L 589 266 L 589 255 L 593 251 L 589 254 L 584 247 L 586 246 L 589 248 L 567 233 L 561 230 L 560 231 L 558 228 L 556 229 L 556 227 Z M 486 207 L 483 206 L 485 207 L 469 213 L 461 213 L 461 215 L 458 214 L 458 216 L 456 215 L 457 216 L 454 216 L 455 217 L 452 219 L 449 218 L 450 219 L 444 223 L 442 222 L 442 224 L 440 223 L 437 227 L 435 226 L 435 228 L 433 227 L 434 228 L 432 230 L 430 229 L 429 231 L 447 221 L 451 220 L 455 223 L 453 225 L 472 216 L 486 212 Z M 515 164 L 513 221 L 512 218 L 513 246 L 513 235 L 518 230 L 515 225 L 519 221 L 518 219 L 520 212 L 523 212 L 523 210 L 520 209 L 522 208 Z" fill="#a6bbcb" fill-rule="evenodd"/>
<path d="M 416 664 L 437 664 L 438 665 L 434 668 L 435 670 L 437 669 L 438 671 L 442 672 L 433 674 L 425 674 L 465 672 L 463 671 L 464 670 L 479 671 L 477 671 L 477 669 L 496 670 L 490 670 L 490 668 L 518 669 L 505 668 L 540 664 L 534 662 Z M 641 665 L 645 668 L 651 669 L 644 670 L 723 675 L 721 675 L 718 671 L 719 669 L 722 669 L 722 667 L 670 661 L 661 661 L 670 661 L 670 663 L 643 663 Z M 253 599 L 257 592 L 279 591 L 280 593 L 285 568 L 290 563 L 312 563 L 315 567 L 310 598 L 314 591 L 334 592 L 336 595 L 342 566 L 341 551 L 336 548 L 336 546 L 334 547 L 334 545 L 330 546 L 330 544 L 316 544 L 324 543 L 288 543 L 293 544 L 282 544 L 280 546 L 278 545 L 276 547 L 272 547 L 264 554 L 261 560 Z M 367 539 L 367 542 L 365 542 L 364 545 L 355 544 L 350 564 L 362 565 L 357 598 L 358 599 L 361 591 L 381 592 L 383 601 L 388 565 L 390 563 L 409 563 L 411 546 L 392 545 L 392 543 L 391 544 L 389 541 L 383 539 Z M 174 538 L 172 546 L 170 547 L 159 597 L 161 591 L 187 590 L 193 567 L 217 566 L 220 569 L 215 595 L 215 593 L 219 591 L 242 591 L 248 564 L 248 555 L 246 551 L 239 546 L 236 547 L 235 545 L 224 547 L 199 547 L 197 540 L 193 538 Z M 886 525 L 872 533 L 869 540 L 873 541 L 884 536 Z M 230 406 L 226 404 L 218 406 L 215 410 L 217 416 L 224 416 L 231 411 Z M 628 265 L 627 268 L 632 281 L 631 302 L 633 299 L 634 300 L 634 295 L 632 293 L 634 283 L 637 280 L 640 282 L 636 271 L 632 267 L 633 266 Z M 415 251 L 399 263 L 393 263 L 386 277 L 394 274 L 393 279 L 404 262 Z" fill="#70e3f9" fill-rule="evenodd"/>
<path d="M 527 725 L 512 729 L 512 743 L 530 731 L 527 731 Z M 627 712 L 513 777 L 511 805 L 547 784 L 631 729 L 628 729 L 621 717 Z M 401 664 L 534 661 L 541 664 L 506 668 L 650 669 L 640 665 L 643 662 L 670 662 L 595 658 L 516 658 Z M 959 564 L 957 573 L 954 573 L 939 590 L 918 605 L 896 617 L 907 611 L 909 612 L 892 622 L 915 610 L 941 592 L 955 577 Z M 776 544 L 779 563 L 819 564 L 825 569 L 827 576 L 826 579 L 785 579 L 776 584 L 774 588 L 777 621 L 781 631 L 788 638 L 798 643 L 824 646 L 834 643 L 839 639 L 841 648 L 867 653 L 853 568 L 847 554 L 839 547 L 827 543 Z M 837 637 L 853 636 L 860 638 L 861 636 L 864 650 L 844 647 L 842 645 L 842 639 Z M 782 627 L 786 626 L 802 632 L 825 634 L 832 638 L 832 636 L 834 638 L 838 638 L 825 644 L 803 642 L 790 637 Z M 800 597 L 803 594 L 829 594 L 831 597 L 834 621 L 831 624 L 807 622 L 803 617 Z M 673 543 L 679 633 L 707 634 L 701 569 L 706 564 L 727 564 L 732 570 L 738 636 L 767 638 L 758 562 L 754 552 L 746 545 L 739 543 L 717 543 L 707 546 L 700 551 L 698 550 L 698 543 Z M 740 624 L 741 623 L 742 626 L 747 626 L 760 632 L 762 626 L 764 635 L 741 635 Z M 681 616 L 683 616 L 683 620 L 685 619 L 689 621 L 687 622 L 695 622 L 702 628 L 703 622 L 704 631 L 682 631 Z M 584 548 L 580 555 L 579 614 L 582 622 L 587 627 L 599 631 L 662 633 L 661 613 L 611 612 L 606 608 L 607 594 L 645 595 L 654 593 L 660 589 L 663 578 L 661 556 L 658 550 L 646 543 L 597 543 Z M 605 565 L 609 560 L 632 560 L 636 565 L 636 578 L 632 581 L 607 581 Z M 570 543 L 557 543 L 549 546 L 543 552 L 541 551 L 541 543 L 518 543 L 513 630 L 540 630 L 542 574 L 550 567 L 570 564 Z M 432 544 L 431 561 L 467 560 L 474 563 L 475 572 L 469 574 L 433 575 L 423 579 L 418 584 L 413 611 L 413 621 L 415 625 L 426 631 L 452 631 L 463 628 L 471 623 L 471 630 L 497 630 L 502 558 L 499 551 L 495 547 L 483 543 Z M 416 622 L 417 619 L 430 620 L 436 618 L 442 613 L 467 614 L 467 619 L 469 621 L 473 621 L 464 626 L 453 629 L 425 629 L 419 626 Z M 473 587 L 473 600 L 470 611 L 443 612 L 440 609 L 442 592 L 445 588 L 462 586 Z M 906 531 L 922 540 L 928 546 L 932 554 L 932 563 L 928 572 L 918 583 L 890 602 L 902 596 L 903 597 L 901 599 L 916 589 L 930 575 L 935 563 L 935 555 L 930 545 L 924 540 Z M 370 515 L 366 542 L 367 538 L 383 538 L 389 540 L 392 544 L 411 545 L 391 543 L 395 515 Z M 178 515 L 171 546 L 174 537 L 193 537 L 197 539 L 198 542 L 204 516 Z M 604 522 L 607 522 L 610 519 L 629 519 L 632 520 L 632 522 L 641 514 L 617 513 Z M 544 468 L 534 472 L 533 467 L 535 465 L 512 473 L 512 487 Z M 655 424 L 668 424 L 681 432 L 688 439 L 691 438 L 692 443 L 689 447 L 695 441 L 710 437 L 707 436 L 711 435 L 679 422 Z M 365 423 L 346 422 L 311 436 L 328 440 L 337 450 L 340 449 L 337 450 L 331 442 L 333 439 L 338 438 L 343 434 L 350 425 Z M 612 382 L 607 391 L 576 412 L 573 427 L 575 424 L 578 427 L 572 445 L 583 417 L 610 393 Z M 905 409 L 892 399 L 905 409 L 901 411 L 890 400 L 898 409 L 890 418 L 865 432 L 828 445 L 814 437 L 846 419 L 850 406 L 837 391 L 797 374 L 839 393 L 847 401 L 849 412 L 838 424 L 821 433 L 763 449 L 781 462 L 770 524 L 775 514 L 784 462 L 874 432 L 897 419 Z M 119 410 L 128 420 L 154 434 L 240 462 L 255 530 L 243 463 L 262 449 L 200 432 L 184 423 L 175 413 L 174 406 L 185 393 L 203 383 L 277 360 L 216 377 L 180 396 L 174 405 L 176 415 L 194 430 L 208 436 L 200 436 L 191 444 L 139 422 L 126 411 L 128 406 L 123 411 Z M 580 355 L 550 372 L 550 376 L 556 380 L 566 380 L 574 376 L 580 366 Z M 444 355 L 445 370 L 452 378 L 464 381 L 471 378 L 475 373 Z M 644 301 L 645 330 L 664 335 L 668 338 L 666 382 L 666 378 L 669 374 L 670 362 L 668 328 L 662 317 Z M 381 300 L 358 321 L 356 326 L 355 370 L 359 386 L 356 338 L 380 329 Z M 555 273 L 552 271 L 551 272 L 549 268 L 542 268 L 542 266 L 538 265 L 539 264 L 527 284 L 519 291 L 523 288 L 526 292 L 533 295 L 544 295 L 548 293 L 556 283 L 554 281 L 556 280 L 554 276 Z M 538 243 L 530 258 L 512 275 L 512 286 L 519 282 L 526 274 L 535 258 L 532 262 L 531 260 Z M 422 245 L 417 242 L 415 245 L 412 241 L 398 256 L 394 263 L 399 262 L 410 253 L 420 247 L 421 248 Z M 697 222 L 666 298 L 664 308 L 690 245 Z M 326 222 L 337 254 L 360 308 L 328 223 Z M 539 206 L 538 212 L 575 227 L 602 246 L 602 259 L 592 324 L 579 326 L 536 368 L 569 338 L 573 343 L 553 357 L 606 324 L 599 325 L 598 312 L 604 249 L 611 253 L 629 274 L 626 266 L 628 264 L 633 267 L 612 241 L 604 248 L 600 241 L 606 239 L 589 226 Z M 510 139 L 508 144 L 509 142 L 511 143 L 512 151 L 511 174 L 513 220 L 515 148 L 520 162 L 522 162 L 522 168 L 526 174 L 526 176 L 516 141 L 514 139 Z" fill="#e4f0f5" fill-rule="evenodd"/>
</svg>